# xmcd
#
# Track frame offsets: 
#        150
#        13278
#        28680
#        43762
#        60648
#        81165
#        100060
#        120234
#        137983
#        152315
#        168990
#        183195
#        200641
#
# Disc length: 2929 seconds
#
# Revision: 0
# Processed by: cddbd v1.5.2PL0 Copyright (c) Steve Scherf et al.
# Submitted via: ExactAudioCopy v1.0b1
#
DISCID=a40b6f0d
DTITLE=Lisa Daggs-Charette - The Only Truth I Know
DYEAR=1999
DGENRE=Country
TTITLE0=Straight And Narrow
TTITLE1=What's It All For
TTITLE2=How Big Is Your Want To?
TTITLE3=Turn To You
TTITLE4=Something To Believe In
TTITLE5=He's Not A Baby Anymore
TTITLE6=The Only Truth I Know
TTITLE7=Some Kind of Wonderful
TTITLE8=I'm Still Dancin'
TTITLE9=I'm Not In Heaven Yet
TTITLE10=More To Do
TTITLE11=Beautiful People
TTITLE12=Alfred and Omega
EXTD=
EXTT0=
EXTT1=
EXTT2=
EXTT3=
EXTT4=
EXTT5=
EXTT6=
EXTT7=
EXTT8=
EXTT9=
EXTT10=
EXTT11=
EXTT12=
PLAYORDER=
